<svg viewBox="0 0 37 37" xmlns="http://www.w3.org/2000/svg"><path d="M28.694 18.5c0 5.63-4.564 10.194-10.194 10.194-5.63 0-10.194-4.564-10.194-10.194 0-5.63 4.564-10.194 10.194-10.194 5.63 0 10.194 4.564 10.194 10.194zM17.367 1.133a1.133 1.133 0 012.266 0v3.02a1.133 1.133 0 01-2.266 0v-3.02zm0 31.714a1.133 1.133 0 012.266 0v3.02a1.133 1.133 0 01-2.266 0v-3.02zm18.5-15.48a1.133 1.133 0 010 2.266h-3.02a1.133 1.133 0 010-2.266h3.02zm-31.714 0a1.133 1.133 0 010 2.266h-3.02a1.133 1.133 0 010-2.266h3.02zM5.419 7.02a1.133 1.133 0 011.601-1.6l2.136 2.135a1.133 1.133 0 11-1.602 1.602L5.42 7.02zm22.425 22.426a1.133 1.133 0 011.602-1.602l2.135 2.136a1.133 1.133 0 01-1.601 1.601l-2.136-2.135zM29.98 5.419a1.133 1.133 0 111.6 1.601l-2.135 2.136a1.133 1.133 0 01-1.602-1.602L29.98 5.42zM7.554 27.844a1.133 1.133 0 011.602 1.602L7.02 31.58a1.133 1.133 0 01-1.6-1.6l2.135-2.136z"/></svg>
