<svg viewBox="0 0 24 21" xmlns="http://www.w3.org/2000/svg"><path d="M23.031.697c-.895-.613-1.754-.162-1.754-.162S3.674 7.794 2.212 8.406C.75 9.019.878 10.226.878 10.226c.018 1.044 1.316 1.44 1.316 1.44l4.332 1.424s1.498 4.647 1.608 5.062c.11.414.474 1.338 1.115 1.459.768.143 1.17-.199 1.17-.199l2.559-2.341 3.565 2.737c.475.379 1.334.865 2.358.63 1.023-.234 1.407-1.242 1.407-1.242l3.235-16.482s.384-1.405-.512-2.017zM18.7 18.457s0 .289-.201.379c-.202.09-.475-.072-.475-.072l-5.1-3.855-3.162 2.774.695-4.18s8.554-7.925 8.61-7.979c.054-.054.182-.198.054-.325-.128-.126-.348 0-.348 0l-10.84 6.522-5.172-1.676L21.898 2.12l-3.199 16.338z"/></svg>
