<?xml version="1.0" encoding="utf-8"?><svg viewBox="0 0 143 143" xmlns="http://www.w3.org/2000/svg" width="143" height="143"><path d="M50.564 80.779L41.285 71.5l9.279-9.279-4.17-4.14-9.25 9.279-9.278-9.28-4.14 4.141 9.279 9.279-9.28 9.279 4.141 4.14 9.279-9.279 9.25 9.28 4.169-4.141zM115.134 58.08l-9.249 9.28-9.28-9.28-4.169 4.141 9.279 9.279-9.279 9.279 4.17 4.14 9.279-9.279 9.249 9.28 4.14-4.141-9.249-9.279 9.249-9.279-4.14-4.14zM71.5 92.994c-14.212 0-25.781 11.393-25.781 25.781h5.873c0-11.158 8.926-19.908 19.908-19.908 10.982 0 19.909 8.75 19.909 19.908h5.872c0-14.388-11.57-25.78-25.781-25.78z"/><path d="M130.11 20.995c0-2.32-.911-4.552-2.555-6.196l-.03-.03c-3.435-3.405-9.014-3.405-12.42 0l-.029.03C102.596 5.256 87.239 0 71.5 0 52.414 0 34.443 7.429 20.936 20.936 7.43 34.443 0 52.384 0 71.5s7.429 37.057 20.936 50.564C34.443 135.571 52.384 143 71.5 143s37.057-7.429 50.564-20.936C135.571 108.557 143 90.616 143 71.5a71.481 71.481 0 00-15.416-44.339 8.836 8.836 0 002.526-6.166zm-10.865-2.056a2.924 2.924 0 014.992 2.085 2.96 2.96 0 01-.852 2.056l-6.195 6.195-4.111-4.11 6.166-6.226zm4.199 24.842c1.145 1.145 1.086 2.995-.029 4.14-1.145 1.145-3.025 1.204-4.17.088l-6.196-6.166-10.424-10.424v-.03l-8.25-8.31c-1.146-1.144-1.117-3.024 0-4.14a2.979 2.979 0 012.084-.85c.793.028 1.527.322 2.055.85l8.281 8.281.881.852 7.282 7.429.969.822 1.38 1.233 6.137 6.225zm-18.704-2.085l-6.196 6.196a2.924 2.924 0 01-4.14 0 2.924 2.924 0 010-4.14l6.225-6.196 4.111 4.14zM137.127 71.5c0 36.176-29.451 65.627-65.627 65.627-36.176 0-65.627-29.451-65.627-65.627 0-36.176 29.451-65.627 65.627-65.627 14.183 0 28.042 4.64 39.376 13.125l-1.996 1.997-6.196-6.225a8.731 8.731 0 00-6.195-2.584h-.06c-2.348 0-4.55.94-6.195 2.584-3.406 3.406-3.435 8.985 0 12.45l6.196 6.225-6.196 6.196c-3.406 3.406-3.435 8.985 0 12.45 1.703 1.703 3.964 2.554 6.225 2.554 2.261 0 4.522-.85 6.225-2.554l6.196-6.196 6.196 6.196a8.76 8.76 0 006.195 2.554c2.261 0 4.522-.85 6.225-2.583 3.407-3.436 3.407-9.015 0-12.421l-6.225-6.225 2.085-2.085c8.926 11.451 13.771 25.605 13.771 40.169z"/><path d="M85.594 36.528c1.762 0 1.762-3.054 0-3.054-2.055 0-2.055 3.054 0 3.054zM82.365 49.272c2.055 0 2.055-3.054 0-3.054-1.762 0-1.762 3.054 0 3.054zM74.436 37.644c1.762 0 1.762-3.054 0-3.054-2.055 0-2.055 3.054 0 3.054zM83.245 24.695c1.762 0 1.762-3.054 0-3.054-2.055 0-2.055 3.054 0 3.054zM71.5 73.027c1.967 0 1.967-3.054 0-3.054s-1.967 3.054 0 3.054z"/></svg>
