<?xml version="1.0" encoding="utf-8"?><svg viewBox="0 0 25 25" xmlns="http://www.w3.org/2000/svg" width="25" height="25"><path d="M18.566 4.63c-.811 0-1.468.655-1.468 1.465 0 .808.657 1.465 1.468 1.465.812 0 1.47-.656 1.47-1.465 0-.81-.658-1.466-1.47-1.466zm-6.13 1.902c-3.269 0-5.919 2.644-5.919 5.905 0 3.262 2.65 5.905 5.92 5.905s5.92-2.643 5.92-5.904c0-3.262-2.65-5.905-5.92-5.906zm2.863 8.76a4.034 4.034 0 01-2.862 1.182c-1.12 0-2.127-.45-2.862-1.183a4.014 4.014 0 01-1.185-2.854c0-1.118.451-2.12 1.185-2.854A4.035 4.035 0 0112.437 8.4c1.12 0 2.126.45 2.862 1.183a4.016 4.016 0 011.185 2.854c0 1.118-.452 2.121-1.185 2.854zm8.836-8.114v.005-.005zm-1.871.08v-.012-.002.014zm1.871-.078c-.053-1.785-.728-3.386-1.877-4.538C21.115 1.49 19.51.8 17.696.754c-.172-.007-2.858-.129-5.065-.129-2.24 0-5.313.125-5.41.129-1.82.045-3.412.738-4.542 1.892C1.546 3.797.881 5.383.784 7.149v.009a75.334 75.334 0 00-.159 5.086c0 2.796.14 5.087.157 5.376.005 1.752.69 3.33 1.84 4.468 1.155 1.148 2.765 1.854 4.578 1.958.21.016 2.824.203 5.342.204 2.62 0 5.18-.204 5.194-.205 1.756-.138 3.35-.84 4.514-1.972a6.18 6.18 0 001.886-4.467c.008-.253.114-3.382.114-5.273-.001-1.946-.112-5.07-.115-5.153zm-1.815 8.484c-.028 1.068-.057 1.892-.057 1.894v.032a4.305 4.305 0 01-1.32 3.145c-.828.805-2.004 1.34-3.356 1.448l-.109.008c-.51.038-2.726.19-4.936.19-1.263 0-2.571-.049-3.56-.1-.496-.024-.911-.05-1.201-.068l-.455-.03-.01-.002H7.31c-1.398-.082-2.556-.613-3.367-1.417-.81-.808-1.286-1.887-1.29-3.175v-.22l-.012-.026a92.476 92.476 0 01-.144-5.1A81.832 81.832 0 012.6 8.145h.005l.048-.884c.077-1.374.576-2.506 1.363-3.307.79-.8 1.876-1.295 3.264-1.333h.014c.001 0 .193-.009.52-.02.98-.037 3.16-.109 4.817-.108 1.105 0 2.355.031 3.326.063.485.016.902.032 1.196.044l.465.02h.019c1.38.038 2.492.537 3.291 1.337.797.803 1.291 1.923 1.334 3.282v.007c.002.021.008.214.018.522.032.98.096 3.133.096 4.564 0 .954-.028 2.265-.056 3.332z"/></svg>
