<?xml version="1.0" encoding="utf-8"?><svg viewBox="0 0 118 106" xmlns="http://www.w3.org/2000/svg" width="118" height="106"><path d="M16.184 38.443a1.904 1.904 0 00-1.912 1.897v48.557c0 1.048.856 1.897 1.912 1.897a1.904 1.904 0 001.91-1.897V40.34a1.904 1.904 0 00-1.91-1.897zm0-12.139a1.904 1.904 0 00-1.912 1.897v4.046c0 1.048.856 1.897 1.912 1.897a1.904 1.904 0 001.91-1.897v-4.046a1.904 1.904 0 00-1.91-1.897zm41.669 52.243L68.027 67.03a1.897 1.897 0 000-2.513L57.853 53l10.174-11.518a1.897 1.897 0 000-2.512L57.853 27.452l10.174-11.517a1.897 1.897 0 000-2.513L56.744.649a1.931 1.931 0 00-2.71-.176 1.896 1.896 0 00-.178 2.69v-.001l2.57 2.91H45.015a10.068 10.068 0 00-8.376 4.448l-5.168 7.691h-7.26v-2.15c0-3.277-2.686-5.943-5.989-5.943h-4.077c-3.303 0-5.99 2.666-5.99 5.943v2.333C3.516 19.283 0 23.34 0 28.2v60.697c0 5.508 4.516 9.99 10.067 9.99h47.279l-3.49 3.95c-.7.791-.62 1.995.178 2.689.364.317.816.473 1.265.473.534 0 1.066-.22 1.445-.65l11.284-12.772a1.897 1.897 0 000-2.513L57.853 78.548zm5.26-39.358l.916 1.037-10.173 11.516c-.025.028-.046.057-.069.086l-.026.033a2.03 2.03 0 00-.081.118l-.026.04a1.86 1.86 0 00-.067.122l-.022.043c-.02.041-.037.083-.054.126-.006.015-.013.03-.018.046a1.887 1.887 0 00-.04.125l-.015.053c-.01.04-.018.08-.025.12l-.012.064-.012.108-.007.08a1.944 1.944 0 00.02.376 2.032 2.032 0 00.037.184l.013.05c.013.044.026.086.041.129l.017.043c.017.043.035.086.055.129l.02.04c.022.042.045.084.07.125l.023.036c.026.041.054.082.084.123l.022.027c.024.03.046.06.072.09l10.173 11.516-8.812 9.975c-7.6-2.44-13.107-9.523-13.103-17.881 0-5.195 2.116-9.88 5.546-13.287a18.942 18.942 0 0113.39-5.504c.698 0 1.386.04 2.063.112zm-3.43-3.882c-11.943.702-21.41 10.532-21.41 22.56.003 9.855 6.352 18.235 15.221 21.328l.018.045c.016.041.033.082.052.122l.023.046.066.12.027.042c.026.04.052.078.08.116l.027.034c.023.029.044.058.068.085l5.67 6.418a28.612 28.612 0 01-18.71-8.277c-5.18-5.144-8.38-12.231-8.38-20.078-.005-13.65 9.711-25.051 22.642-27.775l4.607 5.214zM11.979 16.061a2.16 2.16 0 012.167-2.15h4.077a2.16 2.16 0 012.167 2.15v2.15h-8.41v-2.15zm48.718 79.033h-50.63c-3.442 0-6.243-2.78-6.243-6.197V28.201c0-3.417 2.801-6.196 6.244-6.196h22.428c.639 0 1.235-.317 1.59-.845l5.735-8.536a6.244 6.244 0 015.195-2.759h14.762l4.252 4.813-10.173 11.517c-.025.028-.047.057-.07.086l-.024.032c-.03.039-.057.08-.083.12l-.025.038-.02.036c-14.356 3.33-25.037 16.105-25.04 31.36 0 17.789 14.53 32.206 32.456 32.208.615 0 1.226-.018 1.832-.052l1.147 1.298-3.333 3.773zm47.237-76.883H86.528l-5.167-7.69a10.067 10.067 0 00-8.376-4.45l-1.046.01c-.013-.001-.026-.003-.04-.003a1.9 1.9 0 00-1.907 1.893A1.9 1.9 0 0071.9 9.865h1.085a6.245 6.245 0 015.195 2.76l5.735 8.535c.354.528.95.845 1.59.845h22.428c3.443 0 6.244 2.779 6.244 6.196v60.697c0 3.416-2.801 6.196-6.244 6.196l-35.07.003a1.9 1.9 0 00-1.884 1.892 1.9 1.9 0 001.885 1.892l35.069.006c5.551 0 10.067-4.481 10.067-9.99V28.201c0-5.508-4.516-9.99-10.067-9.99zm-41.112 9.834a1.905 1.905 0 001.381 2.321c12.338 3.15 21.466 14.27 21.462 27.501.003 11.75-7.19 21.83-17.441 26.15a1.9 1.9 0 00-1.017 2.5 1.922 1.922 0 002.518 1.01c11.628-4.898 19.78-16.335 19.782-29.66-.004-15.008-10.34-27.618-24.347-31.192a1.922 1.922 0 00-2.338 1.37zm-2.607 48.352a1.907 1.907 0 00-1.576 2.195 1.917 1.917 0 002.212 1.564c10.777-1.798 18.973-11.09 18.977-22.289 0-7.832-4.022-14.746-10.123-18.795a1.93 1.93 0 00-2.664.524 1.897 1.897 0 00.528 2.644c5.079 3.376 8.418 9.109 8.418 15.627.004 9.308-6.827 17.038-15.772 18.53zm36.04-33.464c3.737-.001 6.763-3.005 6.764-6.712-.001-3.708-3.027-6.712-6.764-6.713-3.737.001-6.764 3.005-6.765 6.713.001 3.707 3.028 6.71 6.765 6.712zm0-9.614a2.917 2.917 0 012.923 2.902 2.917 2.917 0 01-2.923 2.9c-1.614-.003-2.92-1.299-2.923-2.9.002-1.602 1.309-2.899 2.923-2.901z"/></svg>
