<?xml version="1.0" encoding="utf-8"?><svg viewBox="0 0 37 37" xmlns="http://www.w3.org/2000/svg" width="37" height="37"><path d="M28.694 18.5c0 5.63-4.564 10.194-10.194 10.194-5.63 0-10.194-4.564-10.194-10.194 0-5.63 4.564-10.194 10.194-10.194 5.63 0 10.194 4.564 10.194 10.194zM17.367 1.133a1.133 1.133 0 012.266 0v3.02a1.133 1.133 0 01-2.266 0v-3.02zM17.367 32.847a1.133 1.133 0 012.266 0v3.02a1.133 1.133 0 01-2.266 0v-3.02zM35.867 17.367a1.133 1.133 0 010 2.266h-3.02a1.133 1.133 0 010-2.266h3.02zM4.153 17.367a1.133 1.133 0 010 2.266h-3.02a1.133 1.133 0 010-2.266h3.02zM5.419 7.02A1.133 1.133 0 017.02 5.42l2.136 2.135a1.133 1.133 0 11-1.602 1.602L5.42 7.02zM27.844 29.446a1.133 1.133 0 011.602-1.602l2.135 2.136a1.133 1.133 0 01-1.601 1.601l-2.136-2.135zM29.98 5.419A1.133 1.133 0 1131.58 7.02l-2.135 2.136a1.133 1.133 0 01-1.602-1.602L29.98 5.42zM7.554 27.844a1.133 1.133 0 011.602 1.602L7.02 31.58A1.133 1.133 0 015.42 29.98l2.135-2.136z"/></svg>
