<?xml version="1.0" encoding="utf-8"?><svg viewBox="0 0 27 15" xmlns="http://www.w3.org/2000/svg" width="27" height="15"><path d="M4.629 1.459H.704s-.986.03-.624.92c.361.89 2.467 5.523 4.906 8.273 2.439 2.75 5.863 4.2 7.464 4.2h2.143s.64 0 .714-.806c.074-.805.32-2.404 1.047-2.404.727 0 .961.322 1.33.77.37.45 1.552 1.577 2.02 1.91.468.335 1.023.553 1.958.553h3.794s.702-.15.775-.77c.074-.622-3.214-3.959-3.94-4.523 0 0-.345-.299-.37-.713-.025-.414.135-.633.407-.955.27-.322 2.906-3.29 3.843-5.362 0 0 .418-1.082-.666-1.082h-4.68s-.517-.08-.751.495c-.234.575-1.996 4.292-3.473 5.442 0 0-.382.322-.752.254-.369-.07-.517-.633-.517-.944V2.24s0-1.093-1.367-1.265c-1.367-.173-3.276-.104-4.028.058-.751.16-1.059.529-1.244.816 0 0 1.319.322 1.479 1.266.16.944.233 3.015-.025 3.981 0 0-.197.61-.702.598-.505-.011-1.195-.874-1.552-1.368-.357-.495-2.229-3.855-2.39-4.224-.16-.368-.48-.644-.874-.644z"/></svg>
