<?xml version="1.0" encoding="utf-8"?><svg viewBox="0 0 512 512" xmlns="http://www.w3.org/2000/svg" xmlns:xlink="http://www.w3.org/1999/xlink"><style>:root>svg{display:none}:root>svg:target{display:block}</style><svg viewBox="0 0 36 36" id="close" xmlns="http://www.w3.org/2000/svg"><path d="M0 1L.707.293 35.355 34.94l-.707.707L0 1z"/><path d="M35 0l.707.707L1.06 35.355l-.707-.707L35 0z"/></svg><svg viewBox="0 0 143 143" id="error" xmlns="http://www.w3.org/2000/svg"><path d="M50.564 80.779L41.285 71.5l9.279-9.279-4.17-4.14-9.25 9.279-9.278-9.28-4.14 4.141 9.279 9.279-9.28 9.279 4.141 4.14 9.279-9.279 9.25 9.28 4.169-4.141zM115.134 58.08l-9.249 9.28-9.28-9.28-4.169 4.141 9.279 9.279-9.279 9.279 4.17 4.14 9.279-9.279 9.249 9.28 4.14-4.141-9.249-9.279 9.249-9.279-4.14-4.14zM71.5 92.994c-14.212 0-25.781 11.393-25.781 25.781h5.873c0-11.158 8.926-19.908 19.908-19.908 10.982 0 19.909 8.75 19.909 19.908h5.872c0-14.388-11.57-25.78-25.781-25.78z"/><path d="M130.11 20.995c0-2.32-.911-4.552-2.555-6.196l-.03-.03c-3.435-3.405-9.014-3.405-12.42 0l-.029.03C102.596 5.256 87.239 0 71.5 0 52.414 0 34.443 7.429 20.936 20.936 7.43 34.443 0 52.384 0 71.5s7.429 37.057 20.936 50.564C34.443 135.571 52.384 143 71.5 143s37.057-7.429 50.564-20.936C135.571 108.557 143 90.616 143 71.5a71.481 71.481 0 00-15.416-44.339 8.836 8.836 0 002.526-6.166zm-10.865-2.056a2.924 2.924 0 014.992 2.085 2.96 2.96 0 01-.852 2.056l-6.195 6.195-4.111-4.11 6.166-6.226zm4.199 24.842c1.145 1.145 1.086 2.995-.029 4.14-1.145 1.145-3.025 1.204-4.17.088l-6.196-6.166-10.424-10.424v-.03l-8.25-8.31c-1.146-1.144-1.117-3.024 0-4.14a2.979 2.979 0 012.084-.85c.793.028 1.527.322 2.055.85l8.281 8.281.881.852 7.282 7.429.969.822 1.38 1.233 6.137 6.225zm-18.704-2.085l-6.196 6.196a2.924 2.924 0 01-4.14 0 2.924 2.924 0 010-4.14l6.225-6.196 4.111 4.14zM137.127 71.5c0 36.176-29.451 65.627-65.627 65.627-36.176 0-65.627-29.451-65.627-65.627 0-36.176 29.451-65.627 65.627-65.627 14.183 0 28.042 4.64 39.376 13.125l-1.996 1.997-6.196-6.225a8.731 8.731 0 00-6.195-2.584h-.06c-2.348 0-4.55.94-6.195 2.584-3.406 3.406-3.435 8.985 0 12.45l6.196 6.225-6.196 6.196c-3.406 3.406-3.435 8.985 0 12.45 1.703 1.703 3.964 2.554 6.225 2.554 2.261 0 4.522-.85 6.225-2.554l6.196-6.196 6.196 6.196a8.76 8.76 0 006.195 2.554c2.261 0 4.522-.85 6.225-2.583 3.407-3.436 3.407-9.015 0-12.421l-6.225-6.225 2.085-2.085c8.926 11.451 13.771 25.605 13.771 40.169z"/><path d="M85.594 36.528c1.762 0 1.762-3.054 0-3.054-2.055 0-2.055 3.054 0 3.054zM82.365 49.272c2.055 0 2.055-3.054 0-3.054-1.762 0-1.762 3.054 0 3.054zM74.436 37.644c1.762 0 1.762-3.054 0-3.054-2.055 0-2.055 3.054 0 3.054zM83.245 24.695c1.762 0 1.762-3.054 0-3.054-2.055 0-2.055 3.054 0 3.054zM71.5 73.027c1.967 0 1.967-3.054 0-3.054s-1.967 3.054 0 3.054z"/></svg><svg viewBox="0 0 14 27" id="facebook" xmlns="http://www.w3.org/2000/svg"><path d="M11.467 5.056H14V.992S8.472-.165 6.17 2.578C4.493 4.579 4.72 7.95 4.72 7.95v2.186H.876v4.586h3.846v11.402h4.73V14.723h3.755L14 10.136H9.452V6.688s.03-1.632 2.015-1.632z"/></svg><svg viewBox="0 0 25 25" id="instagram" xmlns="http://www.w3.org/2000/svg"><path d="M18.566 4.63c-.811 0-1.468.655-1.468 1.465 0 .808.657 1.465 1.468 1.465.812 0 1.47-.656 1.47-1.465 0-.81-.658-1.466-1.47-1.466zm-6.13 1.902c-3.269 0-5.919 2.644-5.919 5.905 0 3.262 2.65 5.905 5.92 5.905s5.92-2.643 5.92-5.904c0-3.262-2.65-5.905-5.92-5.906zm2.863 8.76a4.034 4.034 0 01-2.862 1.182c-1.12 0-2.127-.45-2.862-1.183a4.014 4.014 0 01-1.185-2.854c0-1.118.451-2.12 1.185-2.854A4.035 4.035 0 0112.437 8.4c1.12 0 2.126.45 2.862 1.183a4.016 4.016 0 011.185 2.854c0 1.118-.452 2.121-1.185 2.854zm8.836-8.114v.005-.005zm-1.871.08v-.012-.002.014zm1.871-.078c-.053-1.785-.728-3.386-1.877-4.538C21.115 1.49 19.51.8 17.696.754c-.172-.007-2.858-.129-5.065-.129-2.24 0-5.313.125-5.41.129-1.82.045-3.412.738-4.542 1.892C1.546 3.797.881 5.383.784 7.149v.009a75.334 75.334 0 00-.159 5.086c0 2.796.14 5.087.157 5.376.005 1.752.69 3.33 1.84 4.468 1.155 1.148 2.765 1.854 4.578 1.958.21.016 2.824.203 5.342.204 2.62 0 5.18-.204 5.194-.205 1.756-.138 3.35-.84 4.514-1.972a6.18 6.18 0 001.886-4.467c.008-.253.114-3.382.114-5.273-.001-1.946-.112-5.07-.115-5.153zm-1.815 8.484c-.028 1.068-.057 1.892-.057 1.894v.032a4.305 4.305 0 01-1.32 3.145c-.828.805-2.004 1.34-3.356 1.448l-.109.008c-.51.038-2.726.19-4.936.19-1.263 0-2.571-.049-3.56-.1-.496-.024-.911-.05-1.201-.068l-.455-.03-.01-.002H7.31c-1.398-.082-2.556-.613-3.367-1.417-.81-.808-1.286-1.887-1.29-3.175v-.22l-.012-.026a92.476 92.476 0 01-.144-5.1A81.832 81.832 0 012.6 8.145h.005l.048-.884c.077-1.374.576-2.506 1.363-3.307.79-.8 1.876-1.295 3.264-1.333h.014c.001 0 .193-.009.52-.02.98-.037 3.16-.109 4.817-.108 1.105 0 2.355.031 3.326.063.485.016.902.032 1.196.044l.465.02h.019c1.38.038 2.492.537 3.291 1.337.797.803 1.291 1.923 1.334 3.282v.007c.002.021.008.214.018.522.032.98.096 3.133.096 4.564 0 .954-.028 2.265-.056 3.332z"/></svg><svg viewBox="0 0 26 35" id="moon" xmlns="http://www.w3.org/2000/svg"><path d="M26 2h-.135c-8.683 0-15.722 6.94-15.722 15.5 0 8.56 7.04 15.5 15.722 15.5H26a17.875 17.875 0 01-8.25 2C7.948 35 0 27.165 0 17.5S7.947 0 17.75 0C20.73 0 23.536.723 26 2z"/></svg><svg viewBox="0 0 118 106" id="photo-error" xmlns="http://www.w3.org/2000/svg"><path d="M16.184 38.443a1.904 1.904 0 00-1.912 1.897v48.557c0 1.048.856 1.897 1.912 1.897a1.904 1.904 0 001.91-1.897V40.34a1.904 1.904 0 00-1.91-1.897zm0-12.139a1.904 1.904 0 00-1.912 1.897v4.046c0 1.048.856 1.897 1.912 1.897a1.904 1.904 0 001.91-1.897v-4.046a1.904 1.904 0 00-1.91-1.897zm41.669 52.243L68.027 67.03a1.897 1.897 0 000-2.513L57.853 53l10.174-11.518a1.897 1.897 0 000-2.512L57.853 27.452l10.174-11.517a1.897 1.897 0 000-2.513L56.744.649a1.931 1.931 0 00-2.71-.176 1.896 1.896 0 00-.178 2.69v-.001l2.57 2.91H45.015a10.068 10.068 0 00-8.376 4.448l-5.168 7.691h-7.26v-2.15c0-3.277-2.686-5.943-5.989-5.943h-4.077c-3.303 0-5.99 2.666-5.99 5.943v2.333C3.516 19.283 0 23.34 0 28.2v60.697c0 5.508 4.516 9.99 10.067 9.99h47.279l-3.49 3.95c-.7.791-.62 1.995.178 2.689.364.317.816.473 1.265.473.534 0 1.066-.22 1.445-.65l11.284-12.772a1.897 1.897 0 000-2.513L57.853 78.548zm5.26-39.358l.916 1.037-10.173 11.516c-.025.028-.046.057-.069.086l-.026.033a2.03 2.03 0 00-.081.118l-.026.04a1.86 1.86 0 00-.067.122l-.022.043c-.02.041-.037.083-.054.126-.006.015-.013.03-.018.046a1.887 1.887 0 00-.04.125l-.015.053c-.01.04-.018.08-.025.12l-.012.064-.012.108-.007.08a1.944 1.944 0 00.02.376 2.032 2.032 0 00.037.184l.013.05c.013.044.026.086.041.129l.017.043c.017.043.035.086.055.129l.02.04c.022.042.045.084.07.125l.023.036c.026.041.054.082.084.123l.022.027c.024.03.046.06.072.09l10.173 11.516-8.812 9.975c-7.6-2.44-13.107-9.523-13.103-17.881 0-5.195 2.116-9.88 5.546-13.287a18.942 18.942 0 0113.39-5.504c.698 0 1.386.04 2.063.112zm-3.43-3.882c-11.943.702-21.41 10.532-21.41 22.56.003 9.855 6.352 18.235 15.221 21.328l.018.045c.016.041.033.082.052.122l.023.046.066.12.027.042c.026.04.052.078.08.116l.027.034c.023.029.044.058.068.085l5.67 6.418a28.612 28.612 0 01-18.71-8.277c-5.18-5.144-8.38-12.231-8.38-20.078-.005-13.65 9.711-25.051 22.642-27.775l4.607 5.214zM11.979 16.061a2.16 2.16 0 012.167-2.15h4.077a2.16 2.16 0 012.167 2.15v2.15h-8.41v-2.15zm48.718 79.033h-50.63c-3.442 0-6.243-2.78-6.243-6.197V28.201c0-3.417 2.801-6.196 6.244-6.196h22.428c.639 0 1.235-.317 1.59-.845l5.735-8.536a6.244 6.244 0 015.195-2.759h14.762l4.252 4.813-10.173 11.517c-.025.028-.047.057-.07.086l-.024.032c-.03.039-.057.08-.083.12l-.025.038-.02.036c-14.356 3.33-25.037 16.105-25.04 31.36 0 17.789 14.53 32.206 32.456 32.208.615 0 1.226-.018 1.832-.052l1.147 1.298-3.333 3.773zm47.237-76.883H86.528l-5.167-7.69a10.067 10.067 0 00-8.376-4.45l-1.046.01c-.013-.001-.026-.003-.04-.003a1.9 1.9 0 00-1.907 1.893A1.9 1.9 0 0071.9 9.865h1.085a6.245 6.245 0 015.195 2.76l5.735 8.535c.354.528.95.845 1.59.845h22.428c3.443 0 6.244 2.779 6.244 6.196v60.697c0 3.416-2.801 6.196-6.244 6.196l-35.07.003a1.9 1.9 0 00-1.884 1.892 1.9 1.9 0 001.885 1.892l35.069.006c5.551 0 10.067-4.481 10.067-9.99V28.201c0-5.508-4.516-9.99-10.067-9.99zm-41.112 9.834a1.905 1.905 0 001.381 2.321c12.338 3.15 21.466 14.27 21.462 27.501.003 11.75-7.19 21.83-17.441 26.15a1.9 1.9 0 00-1.017 2.5 1.922 1.922 0 002.518 1.01c11.628-4.898 19.78-16.335 19.782-29.66-.004-15.008-10.34-27.618-24.347-31.192a1.922 1.922 0 00-2.338 1.37zm-2.607 48.352a1.907 1.907 0 00-1.576 2.195 1.917 1.917 0 002.212 1.564c10.777-1.798 18.973-11.09 18.977-22.289 0-7.832-4.022-14.746-10.123-18.795a1.93 1.93 0 00-2.664.524 1.897 1.897 0 00.528 2.644c5.079 3.376 8.418 9.109 8.418 15.627.004 9.308-6.827 17.038-15.772 18.53zm36.04-33.464c3.737-.001 6.763-3.005 6.764-6.712-.001-3.708-3.027-6.712-6.764-6.713-3.737.001-6.764 3.005-6.765 6.713.001 3.707 3.028 6.71 6.765 6.712zm0-9.614a2.917 2.917 0 012.923 2.902 2.917 2.917 0 01-2.923 2.9c-1.614-.003-2.92-1.299-2.923-2.9.002-1.602 1.309-2.899 2.923-2.901z"/></svg><svg viewBox="0 0 515.558 515.558" id="search" xmlns="http://www.w3.org/2000/svg"><path d="M378.344 332.78c25.37-34.645 40.545-77.2 40.545-123.333C418.889 93.963 324.928.002 209.444.002S0 93.963 0 209.447s93.961 209.445 209.445 209.445c46.133 0 88.692-15.177 123.337-40.547l137.212 137.212 45.564-45.564L378.344 332.78zm-168.899 21.667c-79.958 0-145-65.042-145-145s65.042-145 145-145 145 65.042 145 145-65.043 145-145 145z"/></svg><svg viewBox="0 0 37 37" id="sun" xmlns="http://www.w3.org/2000/svg"><path d="M28.694 18.5c0 5.63-4.564 10.194-10.194 10.194-5.63 0-10.194-4.564-10.194-10.194 0-5.63 4.564-10.194 10.194-10.194 5.63 0 10.194 4.564 10.194 10.194zM17.367 1.133a1.133 1.133 0 012.266 0v3.02a1.133 1.133 0 01-2.266 0v-3.02zM17.367 32.847a1.133 1.133 0 012.266 0v3.02a1.133 1.133 0 01-2.266 0v-3.02zM35.867 17.367a1.133 1.133 0 010 2.266h-3.02a1.133 1.133 0 010-2.266h3.02zM4.153 17.367a1.133 1.133 0 010 2.266h-3.02a1.133 1.133 0 010-2.266h3.02zM5.419 7.02A1.133 1.133 0 017.02 5.42l2.136 2.135a1.133 1.133 0 11-1.602 1.602L5.42 7.02zM27.844 29.446a1.133 1.133 0 011.602-1.602l2.135 2.136a1.133 1.133 0 01-1.601 1.601l-2.136-2.135zM29.98 5.419A1.133 1.133 0 1131.58 7.02l-2.135 2.136a1.133 1.133 0 01-1.602-1.602L29.98 5.42zM7.554 27.844a1.133 1.133 0 011.602 1.602L7.02 31.58A1.133 1.133 0 015.42 29.98l2.135-2.136z"/></svg><svg viewBox="0 0 24 21" id="telegram" xmlns="http://www.w3.org/2000/svg"><path d="M23.031.697c-.895-.613-1.754-.162-1.754-.162S3.674 7.794 2.212 8.406C.75 9.019.878 10.226.878 10.226c.018 1.044 1.316 1.44 1.316 1.44l4.332 1.424s1.498 4.647 1.608 5.062c.11.414.474 1.338 1.115 1.459.768.143 1.17-.199 1.17-.199l2.559-2.341 3.565 2.737c.475.379 1.334.865 2.358.63 1.023-.234 1.407-1.242 1.407-1.242l3.235-16.482s.384-1.405-.512-2.017zM18.7 18.457s0 .289-.201.379c-.202.09-.475-.072-.475-.072l-5.1-3.855-3.162 2.774.695-4.18s8.554-7.925 8.61-7.979c.054-.054.182-.198.054-.325-.128-.126-.348 0-.348 0l-10.84 6.522-5.172-1.676L21.898 2.12l-3.199 16.338z"/></svg><svg viewBox="0 0 27 15" id="vk" xmlns="http://www.w3.org/2000/svg"><path d="M4.629 1.459H.704s-.986.03-.624.92c.361.89 2.467 5.523 4.906 8.273 2.439 2.75 5.863 4.2 7.464 4.2h2.143s.64 0 .714-.806c.074-.805.32-2.404 1.047-2.404.727 0 .961.322 1.33.77.37.45 1.552 1.577 2.02 1.91.468.335 1.023.553 1.958.553h3.794s.702-.15.775-.77c.074-.622-3.214-3.959-3.94-4.523 0 0-.345-.299-.37-.713-.025-.414.135-.633.407-.955.27-.322 2.906-3.29 3.843-5.362 0 0 .418-1.082-.666-1.082h-4.68s-.517-.08-.751.495c-.234.575-1.996 4.292-3.473 5.442 0 0-.382.322-.752.254-.369-.07-.517-.633-.517-.944V2.24s0-1.093-1.367-1.265c-1.367-.173-3.276-.104-4.028.058-.751.16-1.059.529-1.244.816 0 0 1.319.322 1.479 1.266.16.944.233 3.015-.025 3.981 0 0-.197.61-.702.598-.505-.011-1.195-.874-1.552-1.368-.357-.495-2.229-3.855-2.39-4.224-.16-.368-.48-.644-.874-.644z"/></svg></svg>
