<svg viewBox="0 0 143 143"  xmlns="http://www.w3.org/2000/svg">
<path d="M50.5639 80.7788L41.2851 71.5L50.5639 62.2212L46.3942 58.0809L37.1446 67.3597L27.866 58.0809L23.7257 62.2212L33.0045 71.5L23.7257 80.7788L27.866 84.9191L37.1446 75.6401L46.3942 84.9191L50.5639 80.7788Z" />
<path d="M115.134 58.0809L105.885 67.3597L96.6058 58.0809L92.4361 62.2212L101.715 71.5L92.4361 80.7788L96.6058 84.9191L105.885 75.6401L115.134 84.9191L119.274 80.7788L110.025 71.5L119.274 62.2212L115.134 58.0809Z" />
<path d="M71.5 92.9941C57.2881 92.9941 45.7189 104.387 45.7189 118.775H51.5915C51.5915 107.617 60.518 98.8668 71.5 98.8668C82.482 98.8668 91.4085 107.617 91.4085 118.775H97.2812C97.2812 104.387 85.7119 92.9941 71.5 92.9941Z" />
<path d="M130.11 20.9949C130.11 18.6753 129.199 16.4435 127.555 14.7992L127.525 14.7698C124.09 11.3637 118.511 11.3637 115.105 14.7698L115.076 14.7992C102.596 5.25618 87.2388 0 71.5 0C52.4138 0 34.4433 7.42893 20.9361 20.9361C7.42893 34.4433 0 52.3844 0 71.5C0 90.6156 7.42893 108.557 20.9361 122.064C34.4433 135.571 52.3844 143 71.5 143C90.6156 143 108.557 135.571 122.064 122.064C135.571 108.557 143 90.6156 143 71.5C143 55.3795 137.538 39.7287 127.584 27.1612C129.199 25.5169 130.11 23.2852 130.11 20.9949ZM119.245 18.9395C120.39 17.7944 122.24 17.7944 123.385 18.9395C123.943 19.4973 124.237 20.2313 124.237 21.0242C124.237 21.7878 123.914 22.5512 123.385 23.0796L117.19 29.2753L113.079 25.1645L119.245 18.9395ZM123.444 43.7809C124.589 44.926 124.53 46.7759 123.415 47.9212C122.27 49.0663 120.39 49.1252 119.245 48.0093L113.049 41.843L102.625 31.419V31.3896L94.3744 23.0798C93.2293 21.9347 93.2585 20.0554 94.3744 18.9397C94.903 18.4111 95.6663 18.0882 96.4591 18.0882C97.2519 18.1174 97.9861 18.4111 98.5145 18.9397L106.795 27.2201L107.676 28.0716L114.958 35.5005L115.927 36.3227L117.307 37.5561L123.444 43.7809ZM104.74 41.6962L98.5439 47.8918C97.3988 49.0369 95.5488 49.0369 94.4037 47.8918C93.2585 46.7467 93.2585 44.8968 94.4037 43.7515L100.629 37.5559L104.74 41.6962ZM137.127 71.5C137.127 107.676 107.676 137.127 71.5 137.127C35.3242 137.127 5.87268 107.676 5.87268 71.5C5.87268 35.3242 35.3242 5.87268 71.5 5.87268C85.6825 5.87268 99.5422 10.5122 110.876 18.9981L108.88 20.9949L102.684 14.7698C101.04 13.1255 98.8376 12.1857 96.4885 12.1857H96.4298C94.0808 12.1857 91.8786 13.1255 90.2341 14.7698C86.828 18.1759 86.7988 23.7549 90.2341 27.2199L96.4298 33.4451L90.2341 39.6408C86.828 43.0469 86.7988 48.626 90.2341 52.0909C91.9373 53.7939 94.1983 54.6455 96.4593 54.6455C98.7205 54.6455 100.981 53.7941 102.684 52.0909L108.88 45.8952L115.076 52.0909C116.779 53.7939 119.04 54.6455 121.271 54.6455C123.532 54.6455 125.793 53.7941 127.496 52.0617C130.903 48.6261 130.903 43.0471 127.496 39.641L121.271 33.4158L123.356 31.331C132.282 42.7825 137.127 56.9358 137.127 71.5Z" />
<path d="M85.5944 36.5281C87.3562 36.5281 87.3562 33.4743 85.5944 33.4743C83.539 33.4743 83.539 36.5281 85.5944 36.5281Z" />
<path d="M82.3645 49.2719C84.4199 49.2719 84.4199 46.218 82.3645 46.218C80.6027 46.218 80.6027 49.2719 82.3645 49.2719Z" />
<path d="M74.4363 37.644C76.1983 37.644 76.1983 34.5902 74.4363 34.5902C72.3809 34.5902 72.3809 37.644 74.4363 37.644Z" />
<path d="M83.2454 24.6947C85.0072 24.6947 85.0072 21.6409 83.2454 21.6409C81.1899 21.6409 81.1899 24.6947 83.2454 24.6947Z" />
<path d="M71.5 73.0268C73.4674 73.0268 73.4674 69.9732 71.5 69.9732C69.5326 69.9732 69.5326 73.0268 71.5 73.0268Z" />
</svg>
