<svg  viewBox="0 0 118 106"  xmlns="http://www.w3.org/2000/svg">
<path d="M16.1836 38.4433C15.1279 38.4433 14.272 39.2922 14.272 40.34V88.8974C14.272 89.9451 15.1279 90.794 16.1836 90.794C17.2393 90.794 18.0949 89.9451 18.0949 88.8974V40.3401C18.0949 39.2924 17.2391 38.4433 16.1836 38.4433ZM16.1836 26.3041C15.1279 26.3041 14.272 27.153 14.272 28.2007V32.2472C14.272 33.295 15.1279 34.1439 16.1836 34.1439C17.2393 34.1439 18.0949 33.295 18.0949 32.2472V28.2007C18.0949 27.153 17.2391 26.3041 16.1836 26.3041ZM57.8527 78.5475L68.0273 67.03C68.6614 66.3119 68.6617 65.2353 68.0273 64.5172L57.8527 53L68.0273 41.4824C68.6614 40.7646 68.6617 39.6876 68.0273 38.9698L57.8527 27.4523L68.0273 15.9347C68.6614 15.2168 68.6617 14.1398 68.0273 13.422L56.7439 0.64928C56.0446 -0.142022 54.8313 -0.220999 54.0338 0.472723C53.2361 1.1666 53.1565 2.37063 53.8556 3.16223V3.16193L56.4263 6.0719H45.0148C41.6414 6.0719 38.51 7.73501 36.6386 10.5204L31.4715 18.2111H24.2116V16.0615C24.2116 12.7844 21.5249 10.1182 18.2224 10.1182H14.1447C10.8422 10.1182 8.15554 12.7844 8.15554 16.0615V18.3939C3.51573 19.283 0 23.341 0 28.2007V88.8975C0 94.4058 4.51612 98.8873 10.0671 98.8873H57.3455L53.8558 102.838C53.1564 103.629 53.2361 104.833 54.0338 105.527C54.3984 105.844 54.8499 106 55.2993 106C55.8334 106 56.3645 105.78 56.7443 105.35L68.0276 92.5776C68.6619 91.8596 68.6619 90.7829 68.0276 90.0651L57.8527 78.5475ZM63.1133 39.1893L64.029 40.2259L53.8556 51.7422C53.8312 51.7699 53.81 51.7992 53.7874 51.8279C53.7786 51.8389 53.7696 51.8497 53.7611 51.8608C53.7322 51.8994 53.7055 51.9389 53.6798 51.9788C53.6712 51.9922 53.6622 52.0055 53.654 52.0191C53.6298 52.0592 53.6078 52.0997 53.5869 52.141C53.5795 52.1555 53.5718 52.1697 53.5648 52.1842C53.5451 52.2255 53.5276 52.2674 53.511 52.3097C53.5048 52.3251 53.4985 52.3403 53.4929 52.356C53.478 52.3973 53.465 52.4391 53.4531 52.481C53.448 52.4989 53.4428 52.5164 53.4382 52.5344C53.4282 52.574 53.42 52.6138 53.4127 52.6538C53.4087 52.6753 53.4045 52.6966 53.4013 52.7183C53.3959 52.7543 53.3921 52.7904 53.3888 52.8265C53.3864 52.8531 53.3839 52.8793 53.3825 52.9058C53.381 52.9371 53.3808 52.968 53.3808 52.9993C53.3808 53.0311 53.381 53.0629 53.3825 53.0946C53.3838 53.1205 53.3862 53.1462 53.3887 53.172C53.3919 53.2088 53.3958 53.2455 53.4013 53.2823C53.4045 53.3031 53.4085 53.3237 53.4123 53.3445C53.4199 53.3855 53.4282 53.4259 53.4383 53.4664C53.4426 53.4832 53.4477 53.5 53.4524 53.5167C53.4646 53.5597 53.4778 53.6024 53.4932 53.6448C53.4984 53.6595 53.5044 53.6736 53.5101 53.6881C53.527 53.7314 53.5449 53.7744 53.5652 53.817C53.5715 53.8302 53.5786 53.8432 53.5852 53.8563C53.6069 53.8988 53.6296 53.9409 53.6546 53.9822C53.6619 53.9943 53.67 54.0059 53.6775 54.0177C53.7041 54.0594 53.7319 54.1005 53.7622 54.1408C53.7693 54.1501 53.777 54.1591 53.7842 54.1684C53.8077 54.1983 53.83 54.2288 53.8555 54.2577V54.2574L64.0288 65.7738L55.2166 75.7494C47.6173 73.3092 42.1103 66.2256 42.1138 57.8677C42.1147 52.6731 44.2301 47.9872 47.66 44.5808C51.0926 41.1775 55.8148 39.0783 61.0498 39.0774C61.7478 39.0771 62.4357 39.1164 63.1133 39.1893ZM59.6836 35.3071C47.7396 36.0093 38.2737 45.8391 38.2725 57.8674C38.276 67.7225 44.6249 76.1018 53.4941 79.1947C53.4998 79.2099 53.5059 79.2249 53.5118 79.2401C53.5279 79.2813 53.5449 79.322 53.5641 79.3623C53.5715 79.3778 53.5798 79.3929 53.5875 79.4083C53.6081 79.4487 53.6296 79.4885 53.6533 79.5277C53.6619 79.542 53.6712 79.5557 53.6803 79.5698C53.7057 79.6093 53.7319 79.6484 53.7605 79.6864C53.7691 79.6978 53.7785 79.7088 53.7874 79.7201C53.8098 79.7488 53.8309 79.7777 53.8552 79.8053V79.805L59.5245 86.2226C52.2257 85.8425 45.6643 82.7551 40.8153 77.9463C35.6341 72.8016 32.4352 65.715 32.4343 57.8678C32.4304 44.2183 42.1461 32.817 55.077 30.0929L59.6836 35.3071ZM11.9783 16.0615C11.9783 14.8761 12.9501 13.9117 14.1447 13.9117H18.2224C19.4169 13.9117 20.3887 14.8761 20.3887 16.0615V18.2111H11.9783V16.0615ZM60.6964 95.0938H10.0669C6.62399 95.0938 3.82287 92.3144 3.82287 88.8975V28.2007C3.82287 24.784 6.62399 22.0047 10.0669 22.0047H32.4946C33.1338 22.0047 33.7304 21.6877 34.085 21.1598L39.8196 12.6245C40.9804 10.8966 42.9225 9.86527 45.0148 9.86527H59.7773L64.029 14.6782L53.8556 26.1947C53.8309 26.2226 53.8095 26.2522 53.7868 26.2812C53.7783 26.2917 53.7697 26.3021 53.7616 26.3128C53.7321 26.3519 53.7049 26.3922 53.6788 26.4329C53.6706 26.4455 53.6622 26.4581 53.6543 26.4709C53.6471 26.4828 53.6413 26.4951 53.6344 26.507C39.2777 29.8373 28.5972 42.6116 28.5933 57.8675C28.5946 75.6558 43.124 90.0732 61.0498 90.0746C61.6648 90.0742 62.2756 90.0566 62.8823 90.023L64.0291 91.3213L60.6964 95.0938ZM107.933 18.2111H86.5285L81.3614 10.5204C79.49 7.7347 76.3586 6.0719 72.9852 6.0719L71.939 6.08014C71.9258 6.07999 71.913 6.07816 71.8998 6.07816C70.8463 6.07816 69.992 6.92587 69.992 7.97133C69.992 9.0168 70.8463 9.86451 71.8998 9.86451C71.913 9.86451 72.985 9.86527 72.985 9.86527C75.0774 9.86527 77.0196 10.8969 78.1804 12.6245L83.9148 21.1598C84.2694 21.6877 84.8659 22.0047 85.5052 22.0047H107.933C111.376 22.0047 114.177 24.784 114.177 28.2007V88.8975C114.177 92.3143 111.376 95.0938 107.933 95.0938L72.8637 95.0973C71.8207 95.1095 70.9786 95.9514 70.9786 96.9892C70.9786 98.0271 71.8205 98.869 72.8637 98.8812L107.933 98.8871C113.484 98.8871 118 94.4057 118 88.8974V28.2007C118 22.6926 113.484 18.2111 107.933 18.2111ZM66.8207 28.0454C66.5565 29.0646 67.1752 30.1037 68.2022 30.3661C80.5395 33.5168 89.6681 44.6359 89.6644 57.8674C89.6667 69.6168 82.4738 79.6962 72.2226 84.0174C71.2462 84.4287 70.7907 85.5477 71.2055 86.5168C71.516 87.2425 72.2268 87.6782 72.9746 87.6782C73.2249 87.6782 73.4792 87.6295 73.7242 87.5264C85.3517 82.6295 93.5034 71.1917 93.5057 57.8675C93.5019 42.8592 83.1653 30.2494 69.1594 26.6746C68.1323 26.4123 67.0852 27.0261 66.8207 28.0454ZM64.2137 76.3971C63.1673 76.5715 62.4621 77.5546 62.638 78.5925C62.7957 79.5234 63.6089 80.1828 64.5299 80.1828C64.6356 80.1828 64.7427 80.1741 64.8504 80.1563C75.6268 78.3583 83.8225 69.0651 83.8266 57.8675C83.8266 50.0346 79.8049 43.1208 73.7041 39.0722C72.8226 38.4867 71.63 38.7214 71.0399 39.5958C70.4499 40.4706 70.6863 41.6544 71.5679 42.2399H71.5676C76.6467 45.6164 79.9855 51.3487 79.9855 57.8675C79.9896 67.1753 73.1586 74.9051 64.2137 76.3971ZM100.254 42.933C103.991 42.9318 107.017 39.9283 107.018 36.2206C107.017 32.5125 103.991 29.5092 100.254 29.508C96.517 29.5092 93.4903 32.5126 93.4893 36.2206C93.4903 39.9283 96.517 42.9316 100.254 42.933ZM100.254 33.3195C101.868 33.3226 103.174 34.6188 103.177 36.2206C103.174 37.822 101.868 39.1184 100.254 39.1215C98.64 39.1184 97.3332 37.8221 97.3306 36.2206C97.3332 34.6191 98.64 33.3224 100.254 33.3195Z" />
</svg>
