<svg viewBox="0 0 37 37"  xmlns="http://www.w3.org/2000/svg">
<path d="M28.6939 18.5C28.6939 24.1299 24.1299 28.6939 18.5 28.6939C12.8701 28.6939 8.30612 24.1299 8.30612 18.5C8.30612 12.8701 12.8701 8.30612 18.5 8.30612C24.1299 8.30612 28.6939 12.8701 28.6939 18.5Z" />
<path d="M17.3673 1.13265C17.3673 0.507106 17.8745 0 18.5 0C19.1255 0 19.6327 0.507106 19.6327 1.13265V4.15306C19.6327 4.77861 19.1255 5.28571 18.5 5.28571C17.8745 5.28571 17.3673 4.77861 17.3673 4.15306V1.13265Z" />
<path d="M17.3673 32.8469C17.3673 32.2214 17.8745 31.7143 18.5 31.7143C19.1255 31.7143 19.6327 32.2214 19.6327 32.8469V35.8673C19.6327 36.4929 19.1255 37 18.5 37C17.8745 37 17.3673 36.4929 17.3673 35.8673V32.8469Z" />
<path d="M35.8673 17.3673C36.4929 17.3673 37 17.8745 37 18.5C37 19.1255 36.4929 19.6327 35.8673 19.6327H32.8469C32.2214 19.6327 31.7143 19.1255 31.7143 18.5C31.7143 17.8745 32.2214 17.3673 32.8469 17.3673H35.8673Z" />
<path d="M4.15306 17.3673C4.77861 17.3673 5.28571 17.8745 5.28571 18.5C5.28571 19.1255 4.77861 19.6327 4.15306 19.6327H1.13265C0.507106 19.6327 -2.73435e-08 19.1255 0 18.5C2.73435e-08 17.8745 0.507106 17.3673 1.13265 17.3673H4.15306Z" />
<path d="M5.41855 7.02034C4.97623 6.57801 4.97623 5.86085 5.41855 5.41853C5.86088 4.9762 6.57804 4.9762 7.02037 5.41853L9.15612 7.55428C9.59845 7.9966 9.59845 8.71376 9.15612 9.15609C8.71379 9.59842 7.99663 9.59842 7.55431 9.15609L5.41855 7.02034Z" />
<path d="M27.8439 29.4457C27.4016 29.0034 27.4016 28.2862 27.8439 27.8439C28.2863 27.4016 29.0034 27.4016 29.4458 27.8439L31.5815 29.9797C32.0238 30.422 32.0238 31.1391 31.5815 31.5815C31.1392 32.0238 30.422 32.0238 29.9797 31.5815L27.8439 29.4457Z" />
<path d="M29.9797 5.41853C30.422 4.9762 31.1392 4.9762 31.5815 5.41853C32.0238 5.86085 32.0238 6.57801 31.5815 7.02034L29.4458 9.15609C29.0034 9.59842 28.2863 9.59842 27.8439 9.15609C27.4016 8.71376 27.4016 7.9966 27.8439 7.55428L29.9797 5.41853Z" />
<path d="M7.5543 27.8439C7.99663 27.4016 8.71379 27.4016 9.15612 27.8439C9.59845 28.2862 9.59845 29.0034 9.15612 29.4457L7.02037 31.5815C6.57804 32.0238 5.86088 32.0238 5.41855 31.5815C4.97622 31.1391 4.97622 30.422 5.41855 29.9797L7.5543 27.8439Z" />
</svg>
